<?xml version="1.0" encoding="UTF-8"?>
<svg xmlns="http://www.w3.org/2000/svg" id="Layer_2" data-name="Layer 2" viewBox="0 0 59.72 14.08">
  <defs>
    <style>
      .cls-1 {
        fill: #002341;
      }
    </style>
  </defs>
  <g id="Layer_1-2" data-name="Layer 1">
    <g>
      <path class="cls-1" d="M3.13,12.91c0,.27.09.5.28.69.19.19.42.28.69.28v.2H0v-.2c.27,0,.5-.09.69-.28.2-.19.29-.42.29-.69V1.18c0-.27-.1-.51-.29-.7-.19-.19-.42-.28-.69-.28V0h3.13v12.91ZM4.61,0C5.82,0,6.86.4,7.72,1.19c.85.79,1.28,1.73,1.28,2.85s-.43,2.07-1.28,2.86c-.86.79-1.89,1.19-3.1,1.19h-.12v-.51c.85-.18,1.55-.61,2.11-1.29.56-.68.84-1.46.84-2.34s-.28-1.67-.84-2.35c-.56-.67-1.26-1.1-2.11-1.29V0h.12Z"></path>
      <path class="cls-1" d="M11.48,12.7c-.1.29-.07.56.11.8.18.25.42.37.73.37h.19v.2h-3.13v-.2c.38,0,.72-.11,1.03-.32.31-.22.53-.5.66-.86l.56-1.55.23.59-.36.97ZM21.5,13.88v.2h-4.1v-.2c.2,0,.35-.08.46-.25.11-.16.13-.33.06-.51l-1.37-3.74-.14-.39-.25-.65-.08-.23-.8-2.17-.9-2.45,1.26-3.49h.04l4.71,13.1c.19.52.56.78,1.11.78h0Z"></path>
      <path class="cls-1" d="M28.3,12.91c0,.27.09.5.28.69.19.19.42.28.69.28v.2h-4.1v-.2c.27,0,.5-.09.69-.28.2-.19.29-.42.29-.69v-5.08l-2.96-6.89c-.18-.49-.54-.74-1.06-.74V0h3.67v.2c-.19,0-.34.08-.45.24-.12.16-.14.34-.07.52l1.33,3.12,1.43,3.36h0s.26.57.26.57v4.91ZM30.63,1.37c.1-.29.07-.56-.11-.8-.18-.25-.42-.37-.73-.37h-.19V0h3.13v.2c-.38,0-.72.11-1.03.32-.31.22-.53.5-.66.86l-.56,1.55-.23-.59.36-.97Z"></path>
      <path class="cls-1" d="M38.53,14.08h-2.46l4.73-11.06,1.31-3.01h2.48l-4.41,10.27-1.65,3.81ZM36.56,3.45c0,.07,0,.12,0,.16h-.18V0h2.11v.39h-.06c-.35,0-.67.1-.95.3-.29.2-.49.47-.6.8h0c-.03.12-.07.25-.11.39-.03.14-.05.29-.08.46-.03.16-.05.33-.07.51-.02.18-.04.37-.05.58M44.11,10.63v-.16h.19v3.6h-2.12v-.39h.06c.35,0,.67-.1.96-.3.28-.2.48-.47.6-.81.04-.12.08-.25.11-.39.03-.14.06-.29.09-.46.03-.16.05-.33.07-.51.01-.18.03-.37.05-.58"></path>
      <path class="cls-1" d="M49.71,12.7c-.1.29-.07.56.11.8.18.25.42.37.73.37h.19v.2h-3.13v-.2c.38,0,.72-.11,1.03-.32.31-.22.53-.5.66-.86l.56-1.55.23.59-.36.97ZM59.72,13.88v.2h-4.1v-.2c.2,0,.35-.08.46-.25.11-.16.13-.33.06-.51l-1.37-3.74-.14-.39-.25-.65-.08-.23-.8-2.17-.9-2.45,1.26-3.49h.04l4.71,13.1c.19.52.56.78,1.11.78h0Z"></path>
    </g>
  </g>
</svg>
